<svg xmlns="http://www.w3.org/2000/svg" width="255.527" height="193.098" viewBox="0 0 255.527 193.098"><defs><style>.a{fill:#b5a8ff;}</style></defs><g transform="translate(0 124.744) rotate(-30)"><path class="a" d="M1190.275,610.162h.26a1.04,1.04,0,0,0,0-2.079h-.26a33.311,33.311,0,0,1-8.473-1.118,1.047,1.047,0,1,0-.52,2.027A36.214,36.214,0,0,0,1190.275,610.162Zm9.227-1.43a1.3,1.3,0,0,0,.312-.052,28.611,28.611,0,0,0,8.343-4.315,1.04,1.04,0,1,0-1.248-1.664,26.741,26.741,0,0,1-7.746,4,1.031,1.031,0,0,0-.676,1.3A1.051,1.051,0,0,0,1199.5,608.732Zm-26.486-2.807a1.06,1.06,0,0,0,.936-.6,1.037,1.037,0,0,0-.494-1.378,48.491,48.491,0,0,1-7.668-4.471,1.043,1.043,0,0,0-1.222,1.69,50.837,50.837,0,0,0,8.005,4.679A1.217,1.217,0,0,0,1173.016,605.925Zm-116.886-6.784a1,1,0,0,0,.7-.286c.026-.026,2.521-2.339,6.888-5.926a1.033,1.033,0,1,0-1.325-1.586c-4.393,3.639-6.94,5.978-6.966,6a1.059,1.059,0,0,0-.052,1.482A1.106,1.106,0,0,0,1056.13,599.141Zm157.641-1.118a.978.978,0,0,0,.858-.468,27.179,27.179,0,0,0,3.821-8.6,1.031,1.031,0,1,0-2-.494,25.108,25.108,0,0,1-3.535,7.953,1.04,1.04,0,0,0,.286,1.43A.885.885,0,0,0,1213.771,598.023Zm-55.415-2.7a.941.941,0,0,0,.7-.286,1.059,1.059,0,0,0,.052-1.482,40.572,40.572,0,0,1-5.25-7.122,1.048,1.048,0,1,0-1.819,1.04,42.529,42.529,0,0,0,5.536,7.486A1,1,0,0,0,1158.357,595.32Zm-88.19-7.85a1.058,1.058,0,0,0,.624-.208c2.391-1.845,4.834-3.665,7.278-5.406a1.043,1.043,0,0,0-1.222-1.69c-2.469,1.768-4.938,3.613-7.329,5.458a1.013,1.013,0,0,0-.182,1.455A1.058,1.058,0,0,0,1070.166,587.471Zm147.894-6.758h.1a1.011,1.011,0,0,0,.91-1.144,28.329,28.329,0,0,0-2.6-9.045,1.035,1.035,0,1,0-1.871.884,26.092,26.092,0,0,1,2.391,8.369A1.087,1.087,0,0,0,1218.06,580.713Zm-68.671-1.014a.932.932,0,0,0,.286-.052,1.045,1.045,0,0,0,.7-1.3,34.539,34.539,0,0,1-1.378-8.681,1.04,1.04,0,1,0-2.079.052,35.248,35.248,0,0,0,1.481,9.227A1.029,1.029,0,0,0,1149.389,579.7Zm-64.408-2.833a.936.936,0,0,0,.572-.182c2.521-1.689,5.094-3.353,7.642-4.912A1.039,1.039,0,1,0,1092.1,570c-2.547,1.585-5.146,3.249-7.693,4.938a1.04,1.04,0,0,0-.286,1.43A1,1,0,0,0,1084.982,576.866Zm15.491-9.565a1.282,1.282,0,0,0,.52-.13c2.677-1.508,5.354-2.963,7.979-4.289a1.04,1.04,0,1,0-.962-1.845c-2.651,1.352-5.354,2.807-8.058,4.341a1.052,1.052,0,0,0-.39,1.43A1.12,1.12,0,0,0,1100.473,567.3Zm203.074-.208a1.04,1.04,0,1,0,0-2.079,66.225,66.225,0,0,1-8.915-.676,1.037,1.037,0,0,0-.286,2.053,66.58,66.58,0,0,0,9.2.7Zm-17.96-2.5a1.053,1.053,0,0,0,1.014-.78,1.04,1.04,0,0,0-.754-1.274c-2.781-.7-5.588-1.559-8.629-2.625a1.044,1.044,0,1,0-.676,1.975c3.093,1.066,5.952,1.923,8.785,2.651A.469.469,0,0,0,1285.587,564.6Zm-75.116-.078a1.027,1.027,0,0,0,.78-1.715,42.354,42.354,0,0,0-6.992-6.134,1.046,1.046,0,0,0-1.2,1.715,40.452,40.452,0,0,1,6.654,5.822A1.041,1.041,0,0,0,1210.47,564.52Zm-61.5-2.807a1.053,1.053,0,0,0,1.014-.78,30.625,30.625,0,0,1,3.379-8.083,1.043,1.043,0,1,0-1.793-1.066,32.959,32.959,0,0,0-3.587,8.629,1.039,1.039,0,0,0,.754,1.274A.579.579,0,0,0,1148.974,561.713Zm-32.282-2.7a.762.762,0,0,0,.416-.1q4.211-1.91,8.344-3.509a1.045,1.045,0,1,0-.754-1.949c-2.781,1.066-5.614,2.261-8.447,3.561a1.048,1.048,0,0,0-.52,1.378A1.034,1.034,0,0,0,1116.692,559.01Zm151.689-.26a1.008,1.008,0,0,0,.962-.65,1.033,1.033,0,0,0-.572-1.352c-2.521-1.04-5.25-2.209-8.343-3.587a1.041,1.041,0,1,0-.858,1.9c3.093,1.378,5.848,2.547,8.4,3.613A1.178,1.178,0,0,0,1268.38,558.75Zm-72.6-4.731a1.015,1.015,0,0,0,.936-.6,1.037,1.037,0,0,0-.494-1.378,69.3,69.3,0,0,0-8.578-3.353,1.036,1.036,0,1,0-.624,1.975,69.736,69.736,0,0,1,8.344,3.275A1.692,1.692,0,0,0,1195.785,554.019Zm-62.12-1.559a1.3,1.3,0,0,0,.312-.052c2.937-.936,5.848-1.742,8.708-2.417a1.04,1.04,0,0,0-.468-2.027c-2.885.7-5.874,1.534-8.837,2.469a1.031,1.031,0,0,0-.676,1.3A.976.976,0,0,0,1133.664,552.46Zm118.055-1.092a1.038,1.038,0,0,0,.442-1.975L1250,548.379c-2.027-.936-4.055-1.9-6.108-2.807a1.041,1.041,0,0,0-.858,1.9l6.082,2.807,2.183,1.014A1.177,1.177,0,0,0,1251.72,551.368Zm-73.193-2.937a1.008,1.008,0,0,0,1.014-.858,1.04,1.04,0,0,0-.832-1.222,69.847,69.847,0,0,0-9.149-1.118,1.041,1.041,0,1,0-.1,2.079,70.977,70.977,0,0,1,8.889,1.092A.386.386,0,0,0,1178.526,548.431Zm-27.161-.182h.156c3.015-.468,6.03-.78,8.941-.936a1.041,1.041,0,1,0-.1-2.079c-.26.026-.52.026-.78.052a39.429,39.429,0,0,1,6.29-4.653,1.043,1.043,0,0,0-1.066-1.793,40.5,40.5,0,0,0-7.408,5.614,1.019,1.019,0,0,0-.286.988c-1.949.182-3.9.416-5.9.728a1.056,1.056,0,0,0-.884,1.2A1.038,1.038,0,0,0,1151.365,548.249Zm83.8-4.419a1.077,1.077,0,0,0,.962-.624,1.059,1.059,0,0,0-.546-1.378c-3.041-1.326-5.822-2.443-8.447-3.457a1.045,1.045,0,1,0-.754,1.949c2.6.988,5.354,2.131,8.369,3.431A1.178,1.178,0,0,0,1235.163,543.83Zm-17-6.42a1.038,1.038,0,0,0,.312-2.027c-3.067-.962-6.03-1.741-8.889-2.365a1.05,1.05,0,0,0-.442,2.053c2.781.6,5.692,1.378,8.707,2.313C1217.956,537.384,1218.06,537.41,1218.164,537.41Zm-44.628-.494a1.752,1.752,0,0,0,.364-.052c1.845-.676,3.821-1.273,5.848-1.793.91-.234,1.819-.442,2.755-.624a1.035,1.035,0,1,0-.416-2.027c-.935.182-1.9.416-2.833.65a53.108,53.108,0,0,0-6.056,1.871,1.014,1.014,0,0,0,.338,1.975Zm26.85-3.275a1.042,1.042,0,0,0,.1-2.079,69.172,69.172,0,0,0-9.227-.286,1.041,1.041,0,1,0,.1,2.079,64.924,64.924,0,0,1,8.941.26A.1.1,0,0,0,1200.386,533.642Z" transform="translate(-1055.1 -531.233)"/></g></svg>