<svg xmlns="http://www.w3.org/2000/svg" xmlns:xlink="http://www.w3.org/1999/xlink" width="950" height="830" viewBox="0 0 950 830"><defs><style>.a,.g{fill:#fff;}.b{fill:#c2c2c2;font-size:13px;font-family:Poppins-Regular, Poppins;}.c{fill:#222;font-size:14px;}.c,.g{font-family:Poppins-Medium, Poppins;font-weight:500;}.d,.e{fill:none;}.d{stroke:#e5e5e5;}.e{stroke:#222;stroke-width:2px;}.f{fill:url(#c);}.g{font-size:15px;}.h{filter:url(#a);}</style><filter id="a" x="0" y="0" width="950" height="830" filterUnits="userSpaceOnUse"><feOffset dy="20" input="SourceAlpha"/><feGaussianBlur stdDeviation="30" result="b"/><feFlood flood-color="#3e3e3e" flood-opacity="0.161"/><feComposite operator="in" in2="b"/><feComposite in="SourceGraphic"/></filter><linearGradient id="c" x1="-0.136" y1="1.713" x2="1.479" y2="-1.368" gradientUnits="objectBoundingBox"><stop offset="0" stop-color="#6362d7"/><stop offset="1" stop-color="#ff8fe2"/></linearGradient></defs><g transform="translate(317 -6122)"><g class="h" transform="matrix(1, 0, 0, 1, -317, 6122)"><rect class="a" width="770" height="650" rx="8" transform="translate(90 70)"/></g><g transform="translate(0 2.5)"><text class="b" transform="translate(-175 6623.5)"><tspan x="0" y="0">Lorem Ipsum is simply dummy text of the printing and...…….</tspan></text><text class="c" transform="translate(-175 6587.5)"><tspan x="0" y="0">Type Your Message</tspan></text><line class="d" x2="310" transform="translate(-174.5 6321)"/><text class="b" transform="translate(-175 6298.5)"><tspan x="0" y="0">Robert Lee</tspan></text><text class="b" transform="translate(181 6298.5)"><tspan x="0" y="0">Anderson</tspan></text><text class="b" transform="translate(-175 6514.5)"><tspan x="0" y="0">Select One</tspan></text><text class="c" transform="translate(-175 6264.5)"><tspan x="0" y="0">First Name</tspan></text><text class="c" transform="translate(181 6264.5)"><tspan x="0" y="0">Last Name</tspan></text><text class="c" transform="translate(-175 6480.5)"><tspan x="0" y="0">Which Related Problem You Are Facing?</tspan></text><text class="b" transform="translate(-175 6407.5)"><tspan x="0" y="0">kevin.jones@mail.com</tspan></text><text class="c" transform="translate(-175 6371.5)"><tspan x="0" y="0">Your Email Adress</tspan></text><line class="d" x2="310" transform="translate(181.5 6321)"/><line class="d" x2="666" transform="translate(-174.5 6537)"/><line class="d" x2="666" transform="translate(-174.5 6707)"/><line class="d" x2="666" transform="translate(-174.5 6430)"/><path class="e" d="M-2861.9-7011.456l4.311,4.311,4.311-4.311" transform="translate(3335.006 13517.503)"/><path class="f" d="M4.667,0H135.333A4.842,4.842,0,0,1,140,5V43a4.842,4.842,0,0,1-4.667,5H4.667A4.842,4.842,0,0,1,0,43V5A4.842,4.842,0,0,1,4.667,0Z" transform="translate(-175 6743)"/><text class="g" transform="translate(-144 6773)"><tspan x="0" y="0">Our Works</tspan></text></g></g></svg>